<?xml version="1.0" encoding="utf-8"?>
<!-- Generator: Adobe Illustrator 22.1.0, SVG Export Plug-In . SVG Version: 6.00 Build 0)  -->
<svg version="1.1" id="Layer_1" xmlns="http://www.w3.org/2000/svg" xmlns:xlink="http://www.w3.org/1999/xlink" x="51px" y="51px"
	 viewBox="0 0 27.9 51" style="enable-background:new 0 0 27.9 51;" xml:space="preserve">
<style type="text/css">
	.st0{fill:#FFB01F;}
</style>
<path class="st0" d="M14,27.5c4,0,7.3-3.3,7.3-7.3c0-4-3.3-7.3-7.3-7.3c-4,0-7.3,3.3-7.3,7.3C6.7,24.2,9.9,27.5,14,27.5
	C14,27.5,14,27.5,14,27.5z M14,14.8c3,0,5.4,2.4,5.4,5.4s-2.4,5.4-5.4,5.4s-5.4-2.4-5.4-5.4C8.6,17.2,11,14.8,14,14.8z"/>
<path class="st0" d="M1.3,38.8h25.3c0.5,0,1-0.4,1-0.9c0,0,0,0,0,0c0-5.1-4.1-9.1-9.1-9.2H9.5c-5.1,0-9.1,4.1-9.2,9.2
	C0.4,38.4,0.8,38.8,1.3,38.8C1.3,38.8,1.3,38.8,1.3,38.8z M9.5,30.7h8.9c3.6,0,6.7,2.7,7.2,6.3H2.4C2.9,33.3,5.9,30.7,9.5,30.7z"/>
</svg>
